<?xml version="1.0" encoding="UTF-8"?>
<svg width="128" height="128" viewBox="0 0 64 64" xmlns="http://www.w3.org/2000/svg" aria-hidden="true">
  <defs>
    <linearGradient id="g" x1="0" x2="1" y1="0" y2="1">
      <stop offset="0%" stop-color="#4aa3ff"/>
      <stop offset="100%" stop-color="#ffb34a"/>
    </linearGradient>
  </defs>
  <g fill="none" fill-rule="evenodd">
    <path d="M18 14c-4 0-7 3-7 7 0 3 2 6 5 8 3 2 9 3 14 3s11-1 14-3c3-2 5-5 5-8 0-4-3-7-7-7-2 0-5 1-7 2-2-1-5-2-9-2-4 0-7 1-9 2-2-1-5-2-7-2z" fill="#f4e6ce" opacity="0.95"/>
    <path d="M20 20c0-2 3-4 6-4 3 0 5 2 5 4 0 1-1 2-3 3-2 1-5 1-8 1s-6 0-6-4z" fill="url(#g)" opacity="0.95" transform="translate(-1,-1)"/>
    <path d="M44 18c-1 0-3 1-4 1 2 1 3 2 3 3 0 2-2 3-4 4-2 0-4 1-7 1s-6-1-8-1c-2-1-4-2-4-4 0-1 1-2 3-3-1 0-3-1-4-1-4 0-7 3-7 7 0 3 2 6 5 8 3 2 9 3 14 3s11-1 14-3c3-2 5-5 5-8 0-4-3-7-7-7z" fill="#d2b18a" opacity="0.9"/>
    <path d="M39 28c1 0 1-1 1-1 0-1-1-2-3-2-2 0-4 1-5 2-1 1-1 1-1 2 0 1 2 1 4 1 2 0 4-1 4-2z" fill="#fff" opacity="0.85"/>
  </g>
</svg>
